<svg width="18" height="18" viewBox="0 0 18 18" fill="none" xmlns="http://www.w3.org/2000/svg">
<path fill-rule="evenodd" clip-rule="evenodd" d="M0.4222 2.02135C0 2.83411 0 3.90191 0 6.0375V11.9625C0 14.0981 0 15.1659 0.4222 15.9787C0.777983 16.6636 1.33643 17.222 2.02135 17.5778C2.83411 18 3.90191 18 6.0375 18H6.74726C6.74854 17.8561 6.76166 16.349 6.75711 15.5756C4.25372 16.1193 3.72552 14.3689 3.72552 14.3689C3.31612 13.3297 2.72604 13.0529 2.72604 13.0529C1.90889 12.4943 2.78792 12.5053 2.78792 12.5053C3.69127 12.5694 4.16642 13.433 4.16642 13.433C4.96921 14.8082 6.27311 14.4109 6.78584 14.1811C6.86761 13.5993 7.09966 13.2026 7.35713 12.9777C5.35872 12.7507 3.25755 11.9783 3.25755 8.52953C3.25755 7.54718 3.60839 6.74384 4.1841 6.11454C4.09128 5.88691 3.78243 4.97197 4.27195 3.7327C4.27195 3.7327 5.02777 3.4907 6.74716 4.65538C7.46486 4.45593 8.23505 4.35593 9.00027 4.35261C9.76438 4.35593 10.5346 4.45593 11.2534 4.65538C12.9717 3.4907 13.7258 3.7327 13.7258 3.7327C14.217 4.97197 13.9082 5.88691 13.8153 6.11454C14.3921 6.74384 14.7408 7.54718 14.7408 8.52953C14.7408 11.9871 12.6363 12.7479 10.6313 12.9706C10.9545 13.2485 11.2423 13.7977 11.2423 14.6375C11.2423 15.7161 11.2525 17.8287 11.2533 18H11.9625C14.0981 18 15.1659 18 15.9787 17.5778C16.6636 17.222 17.222 16.6636 17.5778 15.9787C18 15.1659 18 14.0981 18 11.9625V6.0375C18 3.90191 18 2.83411 17.5778 2.02135C17.222 1.33643 16.6636 0.777983 15.9787 0.4222C15.1659 0 14.0981 0 11.9625 0H6.0375C3.90191 0 2.83411 0 2.02135 0.4222C1.33643 0.777983 0.777983 1.33643 0.4222 2.02135Z" fill="url(#paint0_linear_248_788)"/>
<defs>
<linearGradient id="paint0_linear_248_788" x1="1.035" y1="1.24615" x2="15.0957" y2="19.165" gradientUnits="userSpaceOnUse">
<stop offset="0.145833" stop-color="#52D0A1"/>
<stop offset="0.932292" stop-color="#00B1B0"/>
</linearGradient>
</defs>
</svg>
