<svg width="18" height="18" viewBox="0 0 18 18" fill="none" xmlns="http://www.w3.org/2000/svg">
<g clip-path="url(#clip0_248_793)">
<path fill-rule="evenodd" clip-rule="evenodd" d="M0.432454 2.02135C0.0102539 2.83411 0.0102539 3.90191 0.0102539 6.0375V11.9625C0.0102539 14.0981 0.0102539 15.1659 0.432454 15.9787C0.788237 16.6636 1.34669 17.222 2.0316 17.5778C2.84437 18 3.91216 18 6.04775 18H11.9728C14.1083 18 15.1761 18 15.9889 17.5778C16.6738 17.222 17.2323 16.6636 17.5881 15.9787C18.0103 15.1659 18.0103 14.0981 18.0103 11.9625V6.0375C18.0103 3.90191 18.0103 2.83411 17.5881 2.02135C17.2323 1.33643 16.6738 0.777983 15.9889 0.4222C15.1761 0 14.1083 0 11.9728 0H6.04775C3.91216 0 2.84437 0 2.0316 0.4222C1.34669 0.777983 0.788237 1.33643 0.432454 2.02135ZM6.30142 2.4941C6.99958 2.46232 7.22267 2.45455 9.00025 2.45455H8.9982C10.7763 2.45455 10.9986 2.46232 11.6968 2.4941C12.3936 2.52601 12.8695 2.63632 13.2867 2.79819C13.7176 2.96523 14.0817 3.18887 14.4458 3.55296C14.8098 3.91678 15.0335 4.28196 15.2012 4.71246C15.3621 5.12864 15.4726 5.60428 15.5053 6.3011C15.5366 6.99928 15.5448 7.22237 15.5448 9.00001C15.5448 10.7776 15.5366 11.0002 15.5053 11.6984C15.4726 12.3949 15.3621 12.8707 15.2012 13.287C15.0335 13.7174 14.8098 14.0826 14.4458 14.4464C14.0821 14.8105 13.7175 15.0346 13.2871 15.2018C12.8707 15.3637 12.3945 15.474 11.6977 15.5059C10.9996 15.5377 10.7772 15.5455 8.99943 15.5455C7.22199 15.5455 6.99904 15.5377 6.30088 15.5059C5.60422 15.474 5.12846 15.3637 4.71202 15.2018C4.2818 15.0346 3.91663 14.8105 3.55296 14.4464C3.18902 14.0826 2.96539 13.7174 2.79807 13.2869C2.63635 12.8707 2.52604 12.3951 2.49399 11.6982C2.46236 11.0001 2.45445 10.7776 2.45445 9.00001C2.45445 7.22237 2.46263 6.99914 2.49386 6.30096C2.52522 5.60442 2.63567 5.12864 2.79794 4.71232C2.96566 4.28196 3.18929 3.91678 3.55337 3.55296C3.91718 3.18901 4.28235 2.96537 4.71283 2.79819C5.129 2.63632 5.60463 2.52601 6.30142 2.4941ZM8.7821 3.63403C8.64974 3.63397 8.5271 3.63392 8.41309 3.6341V3.63246C7.19321 3.63382 6.95922 3.64201 6.35542 3.66928C5.71726 3.6986 5.37077 3.80496 5.14005 3.89496C4.8346 4.01387 4.61643 4.15569 4.38734 4.38478C4.15826 4.61387 4.01617 4.83205 3.89754 5.13751C3.80795 5.36823 3.70132 5.7146 3.67214 6.35278C3.64078 7.04278 3.6345 7.24896 3.6345 8.99687C3.6345 10.7448 3.64078 10.9521 3.67214 11.6421C3.70118 12.2802 3.80795 12.6266 3.89754 12.8571C4.01645 13.1626 4.15826 13.3803 4.38734 13.6094C4.61643 13.8385 4.8346 13.9803 5.14005 14.0989C5.37091 14.1885 5.71726 14.2951 6.35542 14.3246C7.0454 14.356 7.25253 14.3628 9.00025 14.3628C10.7478 14.3628 10.9551 14.356 11.6451 14.3246C12.2832 14.2954 12.6299 14.1891 12.8603 14.0991C13.1659 13.9804 13.3834 13.8386 13.6125 13.6095C13.8416 13.3806 13.9836 13.1631 14.1023 12.8576C14.1919 12.6271 14.2985 12.2808 14.3277 11.6426C14.359 10.9526 14.3659 10.7453 14.3659 8.99851C14.3659 7.25169 14.359 7.04441 14.3277 6.35441C14.2986 5.71623 14.1919 5.36987 14.1023 5.13941C13.9834 4.83396 13.8416 4.61578 13.6125 4.38669C13.3835 4.1576 13.1658 4.01578 12.8603 3.89714C12.6296 3.80755 12.2832 3.70092 11.6451 3.67173C10.955 3.64037 10.7478 3.6341 9.00025 3.6341C8.92472 3.6341 8.85205 3.63406 8.7821 3.63403ZM11.7086 5.5061C11.7086 5.07232 12.0604 4.72091 12.4941 4.72091V4.72064C12.9277 4.72064 13.2795 5.07246 13.2795 5.5061C13.2795 5.93973 12.9277 6.29155 12.4941 6.29155C12.0604 6.29155 11.7086 5.93973 11.7086 5.5061ZM5.63899 9.00001C5.63899 7.14373 7.14391 5.63872 9.00011 5.63864C10.8564 5.63864 12.361 7.14369 12.361 9.00001C12.361 10.8563 10.8565 12.3607 9.00025 12.3607C7.14399 12.3607 5.63899 10.8563 5.63899 9.00001ZM11.182 9.00001C11.182 7.79496 10.2051 6.81819 9.00025 6.81819C7.79524 6.81819 6.8185 7.79496 6.8185 9.00001C6.8185 10.2049 7.79524 11.1818 9.00025 11.1818C10.2051 11.1818 11.182 10.2049 11.182 9.00001Z" fill="url(#paint0_linear_248_793)"/>
</g>
<defs>
<linearGradient id="paint0_linear_248_793" x1="1.04525" y1="1.24615" x2="15.1059" y2="19.165" gradientUnits="userSpaceOnUse">
<stop offset="0.145833" stop-color="#52D0A1"/>
<stop offset="0.932292" stop-color="#00B1B0"/>
</linearGradient>
<clipPath id="clip0_248_793">
<rect width="18" height="18" fill="white"/>
</clipPath>
</defs>
</svg>
