<svg width="226" height="260" viewBox="0 0 226 260" fill="none" xmlns="http://www.w3.org/2000/svg">
<path fill-rule="evenodd" clip-rule="evenodd" d="M106.937 1.63628C108.819 0.539768 110.898 3.26766e-05 113 3.26766e-05C115.129 -0.0049481 117.222 0.559555 119.066 1.63628L219.937 60.2969C223.707 62.4928 226 66.7254 226 71.1285V188.856C226.004 191.011 225.446 193.128 224.381 194.995C223.317 196.861 221.784 198.411 219.937 199.486L119.066 258.348C117.224 259.43 115.132 260 113.001 260C110.871 260 108.779 259.43 106.937 258.348L6.0658 199.486C2.29539 197.282 0 193.259 0 188.856V71.1285C0 66.7311 2.29258 62.4928 6.0658 60.2969L106.937 1.63628ZM62.9758 55H162.438L128.451 130L162.937 205.5H62.9758L98.4621 130L62.9758 55Z" fill="white"/>
</svg>
